solid OpenSCAD_Model
  facet normal -0 0 1
    outer loop
      vertex 0 1828.8 19.05
      vertex 139.7 0 19.05
      vertex 139.7 1828.8 19.05
    endloop
  endfacet
  facet normal 0 0 1
    outer loop
      vertex 139.7 0 19.05
      vertex 0 1828.8 19.05
      vertex 0 0 19.05
    endloop
  endfacet
  facet normal 0 0 -1
    outer loop
      vertex 0 0 0
      vertex 139.7 1828.8 0
      vertex 139.7 0 0
    endloop
  endfacet
  facet normal -0 0 -1
    outer loop
      vertex 139.7 1828.8 0
      vertex 0 0 0
      vertex 0 1828.8 0
    endloop
  endfacet
  facet normal 0 -1 0
    outer loop
      vertex 0 0 0
      vertex 139.7 0 19.05
      vertex 0 0 19.05
    endloop
  endfacet
  facet normal 0 -1 -0
    outer loop
      vertex 139.7 0 19.05
      vertex 0 0 0
      vertex 139.7 0 0
    endloop
  endfacet
  facet normal 1 -0 0
    outer loop
      vertex 139.7 0 19.05
      vertex 139.7 1828.8 0
      vertex 139.7 1828.8 19.05
    endloop
  endfacet
  facet normal 1 0 0
    outer loop
      vertex 139.7 1828.8 0
      vertex 139.7 0 19.05
      vertex 139.7 0 0
    endloop
  endfacet
  facet normal 0 1 -0
    outer loop
      vertex 139.7 1828.8 0
      vertex 0 1828.8 19.05
      vertex 139.7 1828.8 19.05
    endloop
  endfacet
  facet normal 0 1 0
    outer loop
      vertex 0 1828.8 19.05
      vertex 139.7 1828.8 0
      vertex 0 1828.8 0
    endloop
  endfacet
  facet normal -1 0 0
    outer loop
      vertex 0 0 0
      vertex 0 1828.8 19.05
      vertex 0 1828.8 0
    endloop
  endfacet
  facet normal -1 -0 0
    outer loop
      vertex 0 1828.8 19.05
      vertex 0 0 0
      vertex 0 0 19.05
    endloop
  endfacet
endsolid OpenSCAD_Model
