solid OpenSCAD_Model
  facet normal -1 0 0
    outer loop
      vertex 50.8 139.7 317.5
      vertex 50.8 190.5 0
      vertex 50.8 139.7 228.6
    endloop
  endfacet
  facet normal -1 0 0
    outer loop
      vertex 50.8 190.5 0
      vertex 50.8 101.6 228.6
      vertex 50.8 139.7 228.6
    endloop
  endfacet
  facet normal -1 0 0
    outer loop
      vertex 50.8 50.8 787.4
      vertex 50.8 101.6 698.5
      vertex 50.8 101.6 228.6
    endloop
  endfacet
  facet normal -1 0 0
    outer loop
      vertex 50.8 50.8 0
      vertex 50.8 101.6 228.6
      vertex 50.8 190.5 0
    endloop
  endfacet
  facet normal -1 0 0
    outer loop
      vertex 50.8 50.8 787.4
      vertex 50.8 101.6 228.6
      vertex 50.8 50.8 0
    endloop
  endfacet
  facet normal -1 0 0
    outer loop
      vertex 50.8 101.6 698.5
      vertex 50.8 50.8 787.4
      vertex 50.8 101.6 787.4
    endloop
  endfacet
  facet normal -1 0 0
    outer loop
      vertex 50.8 190.5 0
      vertex 50.8 139.7 317.5
      vertex 50.8 190.5 787.4
    endloop
  endfacet
  facet normal -1 0 0
    outer loop
      vertex 50.8 139.7 698.5
      vertex 50.8 190.5 787.4
      vertex 50.8 139.7 317.5
    endloop
  endfacet
  facet normal -1 -0 0
    outer loop
      vertex 50.8 190.5 787.4
      vertex 50.8 139.7 698.5
      vertex 50.8 139.7 787.4
    endloop
  endfacet
  facet normal -1 0 0
    outer loop
      vertex 50.8 101.6 228.6
      vertex 50.8 139.7 317.5
      vertex 50.8 139.7 228.6
    endloop
  endfacet
  facet normal -1 0 0
    outer loop
      vertex 50.8 101.6 698.5
      vertex 50.8 139.7 317.5
      vertex 50.8 101.6 228.6
    endloop
  endfacet
  facet normal -1 0 0
    outer loop
      vertex 50.8 139.7 317.5
      vertex 50.8 101.6 698.5
      vertex 50.8 139.7 698.5
    endloop
  endfacet
  facet normal 0 0 -1
    outer loop
      vertex 50.8 50.8 0
      vertex 88.9 190.5 0
      vertex 88.9 50.8 0
    endloop
  endfacet
  facet normal -0 0 -1
    outer loop
      vertex 88.9 190.5 0
      vertex 50.8 50.8 0
      vertex 50.8 190.5 0
    endloop
  endfacet
  facet normal 1 -0 0
    outer loop
      vertex 88.9 50.8 787.4
      vertex 88.9 101.6 698.5
      vertex 88.9 101.6 787.4
    endloop
  endfacet
  facet normal 1 0 0
    outer loop
      vertex 88.9 101.6 698.5
      vertex 88.9 50.8 787.4
      vertex 88.9 101.6 317.5
    endloop
  endfacet
  facet normal 1 0 0
    outer loop
      vertex 88.9 50.8 0
      vertex 88.9 101.6 317.5
      vertex 88.9 50.8 787.4
    endloop
  endfacet
  facet normal 1 -0 0
    outer loop
      vertex 88.9 101.6 698.5
      vertex 88.9 139.7 317.5
      vertex 88.9 139.7 698.5
    endloop
  endfacet
  facet normal 1 0 0
    outer loop
      vertex 88.9 139.7 317.5
      vertex 88.9 101.6 698.5
      vertex 88.9 101.6 317.5
    endloop
  endfacet
  facet normal 1 0 0
    outer loop
      vertex 88.9 139.7 698.5
      vertex 88.9 190.5 787.4
      vertex 88.9 139.7 787.4
    endloop
  endfacet
  facet normal 1 0 0
    outer loop
      vertex 88.9 139.7 317.5
      vertex 88.9 190.5 787.4
      vertex 88.9 139.7 698.5
    endloop
  endfacet
  facet normal 1 0 0
    outer loop
      vertex 88.9 190.5 787.4
      vertex 88.9 139.7 317.5
      vertex 88.9 190.5 0
    endloop
  endfacet
  facet normal 1 -0 0
    outer loop
      vertex 88.9 139.7 228.6
      vertex 88.9 190.5 0
      vertex 88.9 139.7 317.5
    endloop
  endfacet
  facet normal 1 -0 0
    outer loop
      vertex 88.9 101.6 228.6
      vertex 88.9 190.5 0
      vertex 88.9 139.7 228.6
    endloop
  endfacet
  facet normal 1 0 0
    outer loop
      vertex 88.9 101.6 228.6
      vertex 88.9 50.8 0
      vertex 88.9 190.5 0
    endloop
  endfacet
  facet normal 1 0 0
    outer loop
      vertex 88.9 101.6 317.5
      vertex 88.9 50.8 0
      vertex 88.9 101.6 228.6
    endloop
  endfacet
  facet normal 0 1 -0
    outer loop
      vertex 88.9 190.5 0
      vertex 50.8 190.5 787.4
      vertex 88.9 190.5 787.4
    endloop
  endfacet
  facet normal 0 1 0
    outer loop
      vertex 50.8 190.5 787.4
      vertex 88.9 190.5 0
      vertex 50.8 190.5 0
    endloop
  endfacet
  facet normal 0 -1 0
    outer loop
      vertex 50.8 50.8 0
      vertex 88.9 50.8 787.4
      vertex 50.8 50.8 787.4
    endloop
  endfacet
  facet normal 0 -1 -0
    outer loop
      vertex 88.9 50.8 787.4
      vertex 50.8 50.8 0
      vertex 88.9 50.8 0
    endloop
  endfacet
  facet normal -0 0 1
    outer loop
      vertex 0 1524 838.2
      vertex 914.4 0 838.2
      vertex 914.4 1524 838.2
    endloop
  endfacet
  facet normal 0 0 1
    outer loop
      vertex 914.4 0 838.2
      vertex 0 1524 838.2
      vertex 0 0 838.2
    endloop
  endfacet
  facet normal 0 -1 0
    outer loop
      vertex 50.8 139.7 228.6
      vertex 88.9 139.7 317.5
      vertex 50.8 139.7 317.5
    endloop
  endfacet
  facet normal 0 -1 -0
    outer loop
      vertex 88.9 139.7 317.5
      vertex 50.8 139.7 228.6
      vertex 88.9 139.7 228.6
    endloop
  endfacet
  facet normal 0 1 -0
    outer loop
      vertex 88.9 101.6 228.6
      vertex 50.8 101.6 317.5
      vertex 88.9 101.6 317.5
    endloop
  endfacet
  facet normal 0 1 0
    outer loop
      vertex 50.8 101.6 317.5
      vertex 88.9 101.6 228.6
      vertex 50.8 101.6 228.6
    endloop
  endfacet
  facet normal -0 0 1
    outer loop
      vertex 50.8 139.7 228.6
      vertex 88.9 101.6 228.6
      vertex 88.9 139.7 228.6
    endloop
  endfacet
  facet normal 0 0 1
    outer loop
      vertex 88.9 101.6 228.6
      vertex 50.8 139.7 228.6
      vertex 50.8 101.6 228.6
    endloop
  endfacet
  facet normal 0 -1 0
    outer loop
      vertex 50.8 139.7 698.5
      vertex 88.9 139.7 787.4
      vertex 50.8 139.7 787.4
    endloop
  endfacet
  facet normal 0 -1 -0
    outer loop
      vertex 88.9 139.7 787.4
      vertex 50.8 139.7 698.5
      vertex 88.9 139.7 698.5
    endloop
  endfacet
  facet normal 0 1 -0
    outer loop
      vertex 88.9 101.6 698.5
      vertex 50.8 101.6 787.4
      vertex 88.9 101.6 787.4
    endloop
  endfacet
  facet normal 0 1 0
    outer loop
      vertex 50.8 101.6 787.4
      vertex 88.9 101.6 698.5
      vertex 50.8 101.6 698.5
    endloop
  endfacet
  facet normal -0 0 1
    outer loop
      vertex 50.8 139.7 698.5
      vertex 88.9 101.6 698.5
      vertex 88.9 139.7 698.5
    endloop
  endfacet
  facet normal 0 0 1
    outer loop
      vertex 88.9 101.6 698.5
      vertex 50.8 139.7 698.5
      vertex 50.8 101.6 698.5
    endloop
  endfacet
  facet normal 0 0 -1
    outer loop
      vertex 88.9 190.5 0
      vertex 114.3 -101.6 0
      vertex 88.9 50.8 0
    endloop
  endfacet
  facet normal 0 0 -1
    outer loop
      vertex 114.3 -101.6 0
      vertex 50.8 50.8 0
      vertex 88.9 50.8 0
    endloop
  endfacet
  facet normal -0 0 -1
    outer loop
      vertex 50.8 50.8 0
      vertex 25.4 -101.6 0
      vertex 50.8 190.5 0
    endloop
  endfacet
  facet normal 0 0 -1
    outer loop
      vertex 25.4 -101.6 0
      vertex 50.8 50.8 0
      vertex 114.3 -101.6 0
    endloop
  endfacet
  facet normal 0 0 -1
    outer loop
      vertex 114.3 -101.6 0
      vertex 88.9 190.5 0
      vertex 114.3 355.6 0
    endloop
  endfacet
  facet normal 0 0 -1
    outer loop
      vertex 50.8 190.5 0
      vertex 114.3 355.6 0
      vertex 88.9 190.5 0
    endloop
  endfacet
  facet normal 0 0 -1
    outer loop
      vertex 50.8 190.5 0
      vertex 25.4 355.6 0
      vertex 114.3 355.6 0
    endloop
  endfacet
  facet normal 0 0 -1
    outer loop
      vertex 25.4 355.6 0
      vertex 50.8 190.5 0
      vertex 25.4 -101.6 0
    endloop
  endfacet
  facet normal 0 -1 0
    outer loop
      vertex 25.4 -101.6 0
      vertex 114.3 -101.6 88.9
      vertex 25.4 -101.6 88.9
    endloop
  endfacet
  facet normal 0 -1 -0
    outer loop
      vertex 114.3 -101.6 88.9
      vertex 25.4 -101.6 0
      vertex 114.3 -101.6 0
    endloop
  endfacet
  facet normal 0 0 1
    outer loop
      vertex 114.3 355.6 88.9
      vertex 88.9 190.5 88.9
      vertex 114.3 -101.6 88.9
    endloop
  endfacet
  facet normal 0 0 1
    outer loop
      vertex 114.3 355.6 88.9
      vertex 50.8 190.5 88.9
      vertex 88.9 190.5 88.9
    endloop
  endfacet
  facet normal 0 0 1
    outer loop
      vertex 25.4 -101.6 88.9
      vertex 50.8 190.5 88.9
      vertex 25.4 355.6 88.9
    endloop
  endfacet
  facet normal -0 0 1
    outer loop
      vertex 25.4 355.6 88.9
      vertex 50.8 190.5 88.9
      vertex 114.3 355.6 88.9
    endloop
  endfacet
  facet normal -0 0 1
    outer loop
      vertex 88.9 50.8 88.9
      vertex 114.3 -101.6 88.9
      vertex 88.9 190.5 88.9
    endloop
  endfacet
  facet normal -0 0 1
    outer loop
      vertex 50.8 50.8 88.9
      vertex 114.3 -101.6 88.9
      vertex 88.9 50.8 88.9
    endloop
  endfacet
  facet normal 0 0 1
    outer loop
      vertex 50.8 50.8 88.9
      vertex 25.4 -101.6 88.9
      vertex 114.3 -101.6 88.9
    endloop
  endfacet
  facet normal 0 0 1
    outer loop
      vertex 50.8 190.5 88.9
      vertex 25.4 -101.6 88.9
      vertex 50.8 50.8 88.9
    endloop
  endfacet
  facet normal 1 -0 0
    outer loop
      vertex 114.3 -101.6 88.9
      vertex 114.3 355.6 0
      vertex 114.3 355.6 88.9
    endloop
  endfacet
  facet normal 1 0 0
    outer loop
      vertex 114.3 355.6 0
      vertex 114.3 -101.6 88.9
      vertex 114.3 -101.6 0
    endloop
  endfacet
  facet normal -1 0 0
    outer loop
      vertex 25.4 -101.6 0
      vertex 25.4 355.6 88.9
      vertex 25.4 355.6 0
    endloop
  endfacet
  facet normal -1 -0 0
    outer loop
      vertex 25.4 355.6 88.9
      vertex 25.4 -101.6 0
      vertex 25.4 -101.6 88.9
    endloop
  endfacet
  facet normal 0 1 -0
    outer loop
      vertex 114.3 355.6 0
      vertex 25.4 355.6 88.9
      vertex 114.3 355.6 88.9
    endloop
  endfacet
  facet normal 0 1 0
    outer loop
      vertex 25.4 355.6 88.9
      vertex 114.3 355.6 0
      vertex 25.4 355.6 0
    endloop
  endfacet
  facet normal -1 0 0
    outer loop
      vertex 88.9 50.8 0
      vertex 88.9 190.5 88.9
      vertex 88.9 190.5 0
    endloop
  endfacet
  facet normal -1 -0 0
    outer loop
      vertex 88.9 190.5 88.9
      vertex 88.9 50.8 0
      vertex 88.9 50.8 88.9
    endloop
  endfacet
  facet normal 1 -0 0
    outer loop
      vertex 50.8 50.8 88.9
      vertex 50.8 190.5 0
      vertex 50.8 190.5 88.9
    endloop
  endfacet
  facet normal 1 0 0
    outer loop
      vertex 50.8 190.5 0
      vertex 50.8 50.8 88.9
      vertex 50.8 50.8 0
    endloop
  endfacet
  facet normal 0 -1 0
    outer loop
      vertex 50.8 190.5 0
      vertex 88.9 190.5 88.9
      vertex 50.8 190.5 88.9
    endloop
  endfacet
  facet normal 0 -1 -0
    outer loop
      vertex 88.9 190.5 88.9
      vertex 50.8 190.5 0
      vertex 88.9 190.5 0
    endloop
  endfacet
  facet normal 0 1 -0
    outer loop
      vertex 88.9 50.8 0
      vertex 50.8 50.8 88.9
      vertex 88.9 50.8 88.9
    endloop
  endfacet
  facet normal 0 1 0
    outer loop
      vertex 50.8 50.8 88.9
      vertex 88.9 50.8 0
      vertex 50.8 50.8 0
    endloop
  endfacet
  facet normal -1 0 0
    outer loop
      vertex 825.5 101.6 317.5
      vertex 825.5 139.7 698.5
      vertex 825.5 139.7 317.5
    endloop
  endfacet
  facet normal -1 -0 0
    outer loop
      vertex 825.5 139.7 698.5
      vertex 825.5 101.6 317.5
      vertex 825.5 101.6 698.5
    endloop
  endfacet
  facet normal -1 0 0
    outer loop
      vertex 825.5 139.7 317.5
      vertex 825.5 190.5 0
      vertex 825.5 139.7 228.6
    endloop
  endfacet
  facet normal -1 0 0
    outer loop
      vertex 825.5 190.5 0
      vertex 825.5 101.6 228.6
      vertex 825.5 139.7 228.6
    endloop
  endfacet
  facet normal -1 0 0
    outer loop
      vertex 825.5 50.8 0
      vertex 825.5 101.6 317.5
      vertex 825.5 101.6 228.6
    endloop
  endfacet
  facet normal -1 0 0
    outer loop
      vertex 825.5 101.6 317.5
      vertex 825.5 50.8 787.4
      vertex 825.5 101.6 698.5
    endloop
  endfacet
  facet normal -1 0 0
    outer loop
      vertex 825.5 50.8 0
      vertex 825.5 101.6 228.6
      vertex 825.5 190.5 0
    endloop
  endfacet
  facet normal -1 -0 0
    outer loop
      vertex 825.5 101.6 317.5
      vertex 825.5 50.8 0
      vertex 825.5 50.8 787.4
    endloop
  endfacet
  facet normal -1 0 0
    outer loop
      vertex 825.5 101.6 698.5
      vertex 825.5 50.8 787.4
      vertex 825.5 101.6 787.4
    endloop
  endfacet
  facet normal -1 0 0
    outer loop
      vertex 825.5 190.5 0
      vertex 825.5 139.7 317.5
      vertex 825.5 190.5 787.4
    endloop
  endfacet
  facet normal -1 0 0
    outer loop
      vertex 825.5 139.7 698.5
      vertex 825.5 190.5 787.4
      vertex 825.5 139.7 317.5
    endloop
  endfacet
  facet normal -1 -0 0
    outer loop
      vertex 825.5 190.5 787.4
      vertex 825.5 139.7 698.5
      vertex 825.5 139.7 787.4
    endloop
  endfacet
  facet normal 0 0 -1
    outer loop
      vertex 825.5 50.8 0
      vertex 863.6 190.5 0
      vertex 863.6 50.8 0
    endloop
  endfacet
  facet normal -0 0 -1
    outer loop
      vertex 863.6 190.5 0
      vertex 825.5 50.8 0
      vertex 825.5 190.5 0
    endloop
  endfacet
  facet normal 1 -0 0
    outer loop
      vertex 863.6 50.8 787.4
      vertex 863.6 101.6 698.5
      vertex 863.6 101.6 787.4
    endloop
  endfacet
  facet normal 1 0 0
    outer loop
      vertex 863.6 101.6 698.5
      vertex 863.6 50.8 787.4
      vertex 863.6 101.6 317.5
    endloop
  endfacet
  facet normal 1 0 0
    outer loop
      vertex 863.6 50.8 0
      vertex 863.6 101.6 317.5
      vertex 863.6 50.8 787.4
    endloop
  endfacet
  facet normal 1 -0 0
    outer loop
      vertex 863.6 101.6 698.5
      vertex 863.6 139.7 317.5
      vertex 863.6 139.7 698.5
    endloop
  endfacet
  facet normal 1 0 0
    outer loop
      vertex 863.6 139.7 317.5
      vertex 863.6 101.6 698.5
      vertex 863.6 101.6 317.5
    endloop
  endfacet
  facet normal 1 0 0
    outer loop
      vertex 863.6 139.7 698.5
      vertex 863.6 190.5 787.4
      vertex 863.6 139.7 787.4
    endloop
  endfacet
  facet normal 1 0 0
    outer loop
      vertex 863.6 139.7 317.5
      vertex 863.6 190.5 787.4
      vertex 863.6 139.7 698.5
    endloop
  endfacet
  facet normal 1 0 0
    outer loop
      vertex 863.6 190.5 787.4
      vertex 863.6 139.7 317.5
      vertex 863.6 190.5 0
    endloop
  endfacet
  facet normal 1 -0 0
    outer loop
      vertex 863.6 139.7 228.6
      vertex 863.6 190.5 0
      vertex 863.6 139.7 317.5
    endloop
  endfacet
  facet normal 1 -0 0
    outer loop
      vertex 863.6 101.6 228.6
      vertex 863.6 190.5 0
      vertex 863.6 139.7 228.6
    endloop
  endfacet
  facet normal 1 0 0
    outer loop
      vertex 863.6 101.6 228.6
      vertex 863.6 50.8 0
      vertex 863.6 190.5 0
    endloop
  endfacet
  facet normal 1 0 0
    outer loop
      vertex 863.6 101.6 317.5
      vertex 863.6 50.8 0
      vertex 863.6 101.6 228.6
    endloop
  endfacet
  facet normal 0 1 -0
    outer loop
      vertex 863.6 190.5 0
      vertex 825.5 190.5 787.4
      vertex 863.6 190.5 787.4
    endloop
  endfacet
  facet normal 0 1 0
    outer loop
      vertex 825.5 190.5 787.4
      vertex 863.6 190.5 0
      vertex 825.5 190.5 0
    endloop
  endfacet
  facet normal 0 -1 0
    outer loop
      vertex 825.5 50.8 0
      vertex 863.6 50.8 787.4
      vertex 825.5 50.8 787.4
    endloop
  endfacet
  facet normal 0 -1 -0
    outer loop
      vertex 863.6 50.8 787.4
      vertex 825.5 50.8 0
      vertex 863.6 50.8 0
    endloop
  endfacet
  facet normal 0 -1 0
    outer loop
      vertex 825.5 139.7 228.6
      vertex 863.6 139.7 317.5
      vertex 825.5 139.7 317.5
    endloop
  endfacet
  facet normal 0 -1 -0
    outer loop
      vertex 863.6 139.7 317.5
      vertex 825.5 139.7 228.6
      vertex 863.6 139.7 228.6
    endloop
  endfacet
  facet normal 0 1 -0
    outer loop
      vertex 863.6 101.6 228.6
      vertex 825.5 101.6 317.5
      vertex 863.6 101.6 317.5
    endloop
  endfacet
  facet normal 0 1 0
    outer loop
      vertex 825.5 101.6 317.5
      vertex 863.6 101.6 228.6
      vertex 825.5 101.6 228.6
    endloop
  endfacet
  facet normal -0 0 1
    outer loop
      vertex 825.5 139.7 228.6
      vertex 863.6 101.6 228.6
      vertex 863.6 139.7 228.6
    endloop
  endfacet
  facet normal 0 0 1
    outer loop
      vertex 863.6 101.6 228.6
      vertex 825.5 139.7 228.6
      vertex 825.5 101.6 228.6
    endloop
  endfacet
  facet normal 0 -1 0
    outer loop
      vertex 825.5 139.7 698.5
      vertex 863.6 139.7 787.4
      vertex 825.5 139.7 787.4
    endloop
  endfacet
  facet normal 0 -1 -0
    outer loop
      vertex 863.6 139.7 787.4
      vertex 825.5 139.7 698.5
      vertex 863.6 139.7 698.5
    endloop
  endfacet
  facet normal 0 1 -0
    outer loop
      vertex 863.6 101.6 698.5
      vertex 825.5 101.6 787.4
      vertex 863.6 101.6 787.4
    endloop
  endfacet
  facet normal 0 1 0
    outer loop
      vertex 825.5 101.6 787.4
      vertex 863.6 101.6 698.5
      vertex 825.5 101.6 698.5
    endloop
  endfacet
  facet normal -0 0 1
    outer loop
      vertex 825.5 139.7 698.5
      vertex 863.6 101.6 698.5
      vertex 863.6 139.7 698.5
    endloop
  endfacet
  facet normal 0 0 1
    outer loop
      vertex 863.6 101.6 698.5
      vertex 825.5 139.7 698.5
      vertex 825.5 101.6 698.5
    endloop
  endfacet
  facet normal 0 0 -1
    outer loop
      vertex 863.6 190.5 0
      vertex 889 -101.6 0
      vertex 863.6 50.8 0
    endloop
  endfacet
  facet normal 0 0 -1
    outer loop
      vertex 889 -101.6 0
      vertex 825.5 50.8 0
      vertex 863.6 50.8 0
    endloop
  endfacet
  facet normal -0 0 -1
    outer loop
      vertex 825.5 50.8 0
      vertex 800.1 -101.6 0
      vertex 825.5 190.5 0
    endloop
  endfacet
  facet normal 0 0 -1
    outer loop
      vertex 800.1 -101.6 0
      vertex 825.5 50.8 0
      vertex 889 -101.6 0
    endloop
  endfacet
  facet normal 0 0 -1
    outer loop
      vertex 889 -101.6 0
      vertex 863.6 190.5 0
      vertex 889 355.6 0
    endloop
  endfacet
  facet normal 0 0 -1
    outer loop
      vertex 825.5 190.5 0
      vertex 889 355.6 0
      vertex 863.6 190.5 0
    endloop
  endfacet
  facet normal 0 0 -1
    outer loop
      vertex 825.5 190.5 0
      vertex 800.1 355.6 0
      vertex 889 355.6 0
    endloop
  endfacet
  facet normal 0 0 -1
    outer loop
      vertex 800.1 355.6 0
      vertex 825.5 190.5 0
      vertex 800.1 -101.6 0
    endloop
  endfacet
  facet normal 0 -1 0
    outer loop
      vertex 800.1 -101.6 0
      vertex 889 -101.6 88.9
      vertex 800.1 -101.6 88.9
    endloop
  endfacet
  facet normal 0 -1 -0
    outer loop
      vertex 889 -101.6 88.9
      vertex 800.1 -101.6 0
      vertex 889 -101.6 0
    endloop
  endfacet
  facet normal 0 0 1
    outer loop
      vertex 889 355.6 88.9
      vertex 863.6 190.5 88.9
      vertex 889 -101.6 88.9
    endloop
  endfacet
  facet normal 0 0 1
    outer loop
      vertex 889 355.6 88.9
      vertex 825.5 190.5 88.9
      vertex 863.6 190.5 88.9
    endloop
  endfacet
  facet normal 0 0 1
    outer loop
      vertex 800.1 -101.6 88.9
      vertex 825.5 190.5 88.9
      vertex 800.1 355.6 88.9
    endloop
  endfacet
  facet normal -0 0 1
    outer loop
      vertex 800.1 355.6 88.9
      vertex 825.5 190.5 88.9
      vertex 889 355.6 88.9
    endloop
  endfacet
  facet normal -0 0 1
    outer loop
      vertex 863.6 50.8 88.9
      vertex 889 -101.6 88.9
      vertex 863.6 190.5 88.9
    endloop
  endfacet
  facet normal -0 0 1
    outer loop
      vertex 825.5 50.8 88.9
      vertex 889 -101.6 88.9
      vertex 863.6 50.8 88.9
    endloop
  endfacet
  facet normal 0 0 1
    outer loop
      vertex 825.5 50.8 88.9
      vertex 800.1 -101.6 88.9
      vertex 889 -101.6 88.9
    endloop
  endfacet
  facet normal 0 0 1
    outer loop
      vertex 825.5 190.5 88.9
      vertex 800.1 -101.6 88.9
      vertex 825.5 50.8 88.9
    endloop
  endfacet
  facet normal 1 -0 0
    outer loop
      vertex 889 -101.6 88.9
      vertex 889 355.6 0
      vertex 889 355.6 88.9
    endloop
  endfacet
  facet normal 1 0 0
    outer loop
      vertex 889 355.6 0
      vertex 889 -101.6 88.9
      vertex 889 -101.6 0
    endloop
  endfacet
  facet normal -1 0 0
    outer loop
      vertex 800.1 -101.6 0
      vertex 800.1 355.6 88.9
      vertex 800.1 355.6 0
    endloop
  endfacet
  facet normal -1 -0 0
    outer loop
      vertex 800.1 355.6 88.9
      vertex 800.1 -101.6 0
      vertex 800.1 -101.6 88.9
    endloop
  endfacet
  facet normal 0 1 -0
    outer loop
      vertex 889 355.6 0
      vertex 800.1 355.6 88.9
      vertex 889 355.6 88.9
    endloop
  endfacet
  facet normal 0 1 0
    outer loop
      vertex 800.1 355.6 88.9
      vertex 889 355.6 0
      vertex 800.1 355.6 0
    endloop
  endfacet
  facet normal -1 0 0
    outer loop
      vertex 863.6 50.8 0
      vertex 863.6 190.5 88.9
      vertex 863.6 190.5 0
    endloop
  endfacet
  facet normal -1 -0 0
    outer loop
      vertex 863.6 190.5 88.9
      vertex 863.6 50.8 0
      vertex 863.6 50.8 88.9
    endloop
  endfacet
  facet normal 1 -0 0
    outer loop
      vertex 825.5 50.8 88.9
      vertex 825.5 190.5 0
      vertex 825.5 190.5 88.9
    endloop
  endfacet
  facet normal 1 0 0
    outer loop
      vertex 825.5 190.5 0
      vertex 825.5 50.8 88.9
      vertex 825.5 50.8 0
    endloop
  endfacet
  facet normal 0 -1 0
    outer loop
      vertex 825.5 190.5 0
      vertex 863.6 190.5 88.9
      vertex 825.5 190.5 88.9
    endloop
  endfacet
  facet normal 0 -1 -0
    outer loop
      vertex 863.6 190.5 88.9
      vertex 825.5 190.5 0
      vertex 863.6 190.5 0
    endloop
  endfacet
  facet normal 0 1 -0
    outer loop
      vertex 863.6 50.8 0
      vertex 825.5 50.8 88.9
      vertex 863.6 50.8 88.9
    endloop
  endfacet
  facet normal 0 1 0
    outer loop
      vertex 825.5 50.8 88.9
      vertex 863.6 50.8 0
      vertex 825.5 50.8 0
    endloop
  endfacet
  facet normal 0 -1 0
    outer loop
      vertex 50.8 101.6 228.6
      vertex 88.9 101.6 317.5
      vertex 50.8 101.6 317.5
    endloop
  endfacet
  facet normal 0 -1 -0
    outer loop
      vertex 88.9 101.6 317.5
      vertex 50.8 101.6 228.6
      vertex 825.5 101.6 317.5
    endloop
  endfacet
  facet normal 0 -1 0
    outer loop
      vertex 863.6 101.6 228.6
      vertex 825.5 101.6 317.5
      vertex 50.8 101.6 228.6
    endloop
  endfacet
  facet normal 0 -1 0
    outer loop
      vertex 825.5 101.6 317.5
      vertex 863.6 101.6 228.6
      vertex 863.6 101.6 317.5
    endloop
  endfacet
  facet normal 0 1 -0
    outer loop
      vertex 863.6 139.7 228.6
      vertex 825.5 139.7 317.5
      vertex 863.6 139.7 317.5
    endloop
  endfacet
  facet normal 0 1 0
    outer loop
      vertex 825.5 139.7 317.5
      vertex 863.6 139.7 228.6
      vertex 88.9 139.7 317.5
    endloop
  endfacet
  facet normal 0 1 0
    outer loop
      vertex 50.8 139.7 228.6
      vertex 88.9 139.7 317.5
      vertex 863.6 139.7 228.6
    endloop
  endfacet
  facet normal 0 1 0
    outer loop
      vertex 88.9 139.7 317.5
      vertex 50.8 139.7 228.6
      vertex 50.8 139.7 317.5
    endloop
  endfacet
  facet normal -0 0 1
    outer loop
      vertex 88.9 139.7 317.5
      vertex 825.5 101.6 317.5
      vertex 825.5 139.7 317.5
    endloop
  endfacet
  facet normal 0 0 1
    outer loop
      vertex 825.5 101.6 317.5
      vertex 88.9 139.7 317.5
      vertex 88.9 101.6 317.5
    endloop
  endfacet
  facet normal 0 0 -1
    outer loop
      vertex 50.8 101.6 228.6
      vertex 863.6 139.7 228.6
      vertex 863.6 101.6 228.6
    endloop
  endfacet
  facet normal -0 0 -1
    outer loop
      vertex 863.6 139.7 228.6
      vertex 50.8 101.6 228.6
      vertex 50.8 139.7 228.6
    endloop
  endfacet
  facet normal 1 -0 0
    outer loop
      vertex 863.6 101.6 317.5
      vertex 863.6 139.7 228.6
      vertex 863.6 139.7 317.5
    endloop
  endfacet
  facet normal 1 0 0
    outer loop
      vertex 863.6 139.7 228.6
      vertex 863.6 101.6 317.5
      vertex 863.6 101.6 228.6
    endloop
  endfacet
  facet normal 0 -1 0
    outer loop
      vertex 50.8 101.6 698.5
      vertex 863.6 101.6 787.4
      vertex 50.8 101.6 787.4
    endloop
  endfacet
  facet normal 0 -1 -0
    outer loop
      vertex 863.6 101.6 787.4
      vertex 50.8 101.6 698.5
      vertex 863.6 101.6 698.5
    endloop
  endfacet
  facet normal -1 0 0
    outer loop
      vertex 50.8 101.6 698.5
      vertex 50.8 139.7 787.4
      vertex 50.8 139.7 698.5
    endloop
  endfacet
  facet normal -1 -0 0
    outer loop
      vertex 50.8 139.7 787.4
      vertex 50.8 101.6 698.5
      vertex 50.8 101.6 787.4
    endloop
  endfacet
  facet normal 0 1 -0
    outer loop
      vertex 863.6 139.7 698.5
      vertex 50.8 139.7 787.4
      vertex 863.6 139.7 787.4
    endloop
  endfacet
  facet normal 0 1 0
    outer loop
      vertex 50.8 139.7 787.4
      vertex 863.6 139.7 698.5
      vertex 50.8 139.7 698.5
    endloop
  endfacet
  facet normal 0 0 -1
    outer loop
      vertex 50.8 101.6 698.5
      vertex 863.6 139.7 698.5
      vertex 863.6 101.6 698.5
    endloop
  endfacet
  facet normal -0 0 -1
    outer loop
      vertex 863.6 139.7 698.5
      vertex 50.8 101.6 698.5
      vertex 50.8 139.7 698.5
    endloop
  endfacet
  facet normal 1 -0 0
    outer loop
      vertex 863.6 101.6 787.4
      vertex 863.6 139.7 698.5
      vertex 863.6 139.7 787.4
    endloop
  endfacet
  facet normal 1 0 0
    outer loop
      vertex 863.6 139.7 698.5
      vertex 863.6 101.6 787.4
      vertex 863.6 101.6 698.5
    endloop
  endfacet
  facet normal -1 0 0
    outer loop
      vertex 50.8 1422.4 317.5
      vertex 50.8 1473.2 0
      vertex 50.8 1422.4 228.6
    endloop
  endfacet
  facet normal -1 0 0
    outer loop
      vertex 50.8 1473.2 0
      vertex 50.8 1384.3 228.6
      vertex 50.8 1422.4 228.6
    endloop
  endfacet
  facet normal -1 0 0
    outer loop
      vertex 50.8 1333.5 787.4
      vertex 50.8 1384.3 698.5
      vertex 50.8 1384.3 228.6
    endloop
  endfacet
  facet normal -1 0 0
    outer loop
      vertex 50.8 1333.5 0
      vertex 50.8 1384.3 228.6
      vertex 50.8 1473.2 0
    endloop
  endfacet
  facet normal -1 0 0
    outer loop
      vertex 50.8 1333.5 787.4
      vertex 50.8 1384.3 228.6
      vertex 50.8 1333.5 0
    endloop
  endfacet
  facet normal -1 0 0
    outer loop
      vertex 50.8 1384.3 698.5
      vertex 50.8 1333.5 787.4
      vertex 50.8 1384.3 787.4
    endloop
  endfacet
  facet normal -1 0 0
    outer loop
      vertex 50.8 1473.2 0
      vertex 50.8 1422.4 317.5
      vertex 50.8 1473.2 787.4
    endloop
  endfacet
  facet normal -1 0 0
    outer loop
      vertex 50.8 1422.4 698.5
      vertex 50.8 1473.2 787.4
      vertex 50.8 1422.4 317.5
    endloop
  endfacet
  facet normal -1 -0 0
    outer loop
      vertex 50.8 1473.2 787.4
      vertex 50.8 1422.4 698.5
      vertex 50.8 1422.4 787.4
    endloop
  endfacet
  facet normal -1 0 0
    outer loop
      vertex 50.8 1384.3 228.6
      vertex 50.8 1422.4 317.5
      vertex 50.8 1422.4 228.6
    endloop
  endfacet
  facet normal -1 0 0
    outer loop
      vertex 50.8 1384.3 698.5
      vertex 50.8 1422.4 317.5
      vertex 50.8 1384.3 228.6
    endloop
  endfacet
  facet normal -1 0 0
    outer loop
      vertex 50.8 1422.4 317.5
      vertex 50.8 1384.3 698.5
      vertex 50.8 1422.4 698.5
    endloop
  endfacet
  facet normal 0 0 -1
    outer loop
      vertex 50.8 1333.5 0
      vertex 88.9 1473.2 0
      vertex 88.9 1333.5 0
    endloop
  endfacet
  facet normal -0 0 -1
    outer loop
      vertex 88.9 1473.2 0
      vertex 50.8 1333.5 0
      vertex 50.8 1473.2 0
    endloop
  endfacet
  facet normal 1 -0 0
    outer loop
      vertex 88.9 1333.5 787.4
      vertex 88.9 1384.3 698.5
      vertex 88.9 1384.3 787.4
    endloop
  endfacet
  facet normal 1 0 0
    outer loop
      vertex 88.9 1384.3 698.5
      vertex 88.9 1333.5 787.4
      vertex 88.9 1384.3 317.5
    endloop
  endfacet
  facet normal 1 0 0
    outer loop
      vertex 88.9 1333.5 0
      vertex 88.9 1384.3 317.5
      vertex 88.9 1333.5 787.4
    endloop
  endfacet
  facet normal 1 -0 0
    outer loop
      vertex 88.9 1384.3 698.5
      vertex 88.9 1422.4 317.5
      vertex 88.9 1422.4 698.5
    endloop
  endfacet
  facet normal 1 0 0
    outer loop
      vertex 88.9 1422.4 317.5
      vertex 88.9 1384.3 698.5
      vertex 88.9 1384.3 317.5
    endloop
  endfacet
  facet normal 1 0 0
    outer loop
      vertex 88.9 1422.4 698.5
      vertex 88.9 1473.2 787.4
      vertex 88.9 1422.4 787.4
    endloop
  endfacet
  facet normal 1 0 0
    outer loop
      vertex 88.9 1422.4 317.5
      vertex 88.9 1473.2 787.4
      vertex 88.9 1422.4 698.5
    endloop
  endfacet
  facet normal 1 0 0
    outer loop
      vertex 88.9 1473.2 787.4
      vertex 88.9 1422.4 317.5
      vertex 88.9 1473.2 0
    endloop
  endfacet
  facet normal 1 -0 0
    outer loop
      vertex 88.9 1422.4 228.6
      vertex 88.9 1473.2 0
      vertex 88.9 1422.4 317.5
    endloop
  endfacet
  facet normal 1 -0 0
    outer loop
      vertex 88.9 1384.3 228.6
      vertex 88.9 1473.2 0
      vertex 88.9 1422.4 228.6
    endloop
  endfacet
  facet normal 1 0 0
    outer loop
      vertex 88.9 1384.3 228.6
      vertex 88.9 1333.5 0
      vertex 88.9 1473.2 0
    endloop
  endfacet
  facet normal 1 0 0
    outer loop
      vertex 88.9 1384.3 317.5
      vertex 88.9 1333.5 0
      vertex 88.9 1384.3 228.6
    endloop
  endfacet
  facet normal 0 1 -0
    outer loop
      vertex 88.9 1473.2 0
      vertex 50.8 1473.2 787.4
      vertex 88.9 1473.2 787.4
    endloop
  endfacet
  facet normal 0 1 0
    outer loop
      vertex 50.8 1473.2 787.4
      vertex 88.9 1473.2 0
      vertex 50.8 1473.2 0
    endloop
  endfacet
  facet normal 0 -1 0
    outer loop
      vertex 50.8 1333.5 0
      vertex 88.9 1333.5 787.4
      vertex 50.8 1333.5 787.4
    endloop
  endfacet
  facet normal 0 -1 -0
    outer loop
      vertex 88.9 1333.5 787.4
      vertex 50.8 1333.5 0
      vertex 88.9 1333.5 0
    endloop
  endfacet
  facet normal 0 -1 0
    outer loop
      vertex 50.8 1422.4 228.6
      vertex 88.9 1422.4 317.5
      vertex 50.8 1422.4 317.5
    endloop
  endfacet
  facet normal 0 -1 -0
    outer loop
      vertex 88.9 1422.4 317.5
      vertex 50.8 1422.4 228.6
      vertex 88.9 1422.4 228.6
    endloop
  endfacet
  facet normal 0 1 -0
    outer loop
      vertex 88.9 1384.3 228.6
      vertex 50.8 1384.3 317.5
      vertex 88.9 1384.3 317.5
    endloop
  endfacet
  facet normal 0 1 0
    outer loop
      vertex 50.8 1384.3 317.5
      vertex 88.9 1384.3 228.6
      vertex 50.8 1384.3 228.6
    endloop
  endfacet
  facet normal -0 0 1
    outer loop
      vertex 50.8 1422.4 228.6
      vertex 88.9 1384.3 228.6
      vertex 88.9 1422.4 228.6
    endloop
  endfacet
  facet normal 0 0 1
    outer loop
      vertex 88.9 1384.3 228.6
      vertex 50.8 1422.4 228.6
      vertex 50.8 1384.3 228.6
    endloop
  endfacet
  facet normal 0 -1 0
    outer loop
      vertex 50.8 1422.4 698.5
      vertex 88.9 1422.4 787.4
      vertex 50.8 1422.4 787.4
    endloop
  endfacet
  facet normal 0 -1 -0
    outer loop
      vertex 88.9 1422.4 787.4
      vertex 50.8 1422.4 698.5
      vertex 88.9 1422.4 698.5
    endloop
  endfacet
  facet normal 0 1 -0
    outer loop
      vertex 88.9 1384.3 698.5
      vertex 50.8 1384.3 787.4
      vertex 88.9 1384.3 787.4
    endloop
  endfacet
  facet normal 0 1 0
    outer loop
      vertex 50.8 1384.3 787.4
      vertex 88.9 1384.3 698.5
      vertex 50.8 1384.3 698.5
    endloop
  endfacet
  facet normal -0 0 1
    outer loop
      vertex 50.8 1422.4 698.5
      vertex 88.9 1384.3 698.5
      vertex 88.9 1422.4 698.5
    endloop
  endfacet
  facet normal 0 0 1
    outer loop
      vertex 88.9 1384.3 698.5
      vertex 50.8 1422.4 698.5
      vertex 50.8 1384.3 698.5
    endloop
  endfacet
  facet normal 0 0 -1
    outer loop
      vertex 88.9 1473.2 0
      vertex 114.3 1181.1 0
      vertex 88.9 1333.5 0
    endloop
  endfacet
  facet normal 0 0 -1
    outer loop
      vertex 114.3 1181.1 0
      vertex 50.8 1333.5 0
      vertex 88.9 1333.5 0
    endloop
  endfacet
  facet normal -0 0 -1
    outer loop
      vertex 50.8 1333.5 0
      vertex 25.4 1181.1 0
      vertex 50.8 1473.2 0
    endloop
  endfacet
  facet normal 0 0 -1
    outer loop
      vertex 25.4 1181.1 0
      vertex 50.8 1333.5 0
      vertex 114.3 1181.1 0
    endloop
  endfacet
  facet normal 0 0 -1
    outer loop
      vertex 114.3 1181.1 0
      vertex 88.9 1473.2 0
      vertex 114.3 1638.3 0
    endloop
  endfacet
  facet normal 0 0 -1
    outer loop
      vertex 50.8 1473.2 0
      vertex 114.3 1638.3 0
      vertex 88.9 1473.2 0
    endloop
  endfacet
  facet normal 0 0 -1
    outer loop
      vertex 50.8 1473.2 0
      vertex 25.4 1638.3 0
      vertex 114.3 1638.3 0
    endloop
  endfacet
  facet normal 0 0 -1
    outer loop
      vertex 25.4 1638.3 0
      vertex 50.8 1473.2 0
      vertex 25.4 1181.1 0
    endloop
  endfacet
  facet normal 0 -1 0
    outer loop
      vertex 25.4 1181.1 0
      vertex 114.3 1181.1 88.9
      vertex 25.4 1181.1 88.9
    endloop
  endfacet
  facet normal 0 -1 -0
    outer loop
      vertex 114.3 1181.1 88.9
      vertex 25.4 1181.1 0
      vertex 114.3 1181.1 0
    endloop
  endfacet
  facet normal 0 0 1
    outer loop
      vertex 114.3 1638.3 88.9
      vertex 88.9 1473.2 88.9
      vertex 114.3 1181.1 88.9
    endloop
  endfacet
  facet normal 0 0 1
    outer loop
      vertex 114.3 1638.3 88.9
      vertex 50.8 1473.2 88.9
      vertex 88.9 1473.2 88.9
    endloop
  endfacet
  facet normal 0 0 1
    outer loop
      vertex 25.4 1181.1 88.9
      vertex 50.8 1473.2 88.9
      vertex 25.4 1638.3 88.9
    endloop
  endfacet
  facet normal -0 0 1
    outer loop
      vertex 25.4 1638.3 88.9
      vertex 50.8 1473.2 88.9
      vertex 114.3 1638.3 88.9
    endloop
  endfacet
  facet normal -0 0 1
    outer loop
      vertex 88.9 1333.5 88.9
      vertex 114.3 1181.1 88.9
      vertex 88.9 1473.2 88.9
    endloop
  endfacet
  facet normal -0 0 1
    outer loop
      vertex 50.8 1333.5 88.9
      vertex 114.3 1181.1 88.9
      vertex 88.9 1333.5 88.9
    endloop
  endfacet
  facet normal 0 0 1
    outer loop
      vertex 50.8 1333.5 88.9
      vertex 25.4 1181.1 88.9
      vertex 114.3 1181.1 88.9
    endloop
  endfacet
  facet normal 0 0 1
    outer loop
      vertex 50.8 1473.2 88.9
      vertex 25.4 1181.1 88.9
      vertex 50.8 1333.5 88.9
    endloop
  endfacet
  facet normal 1 -0 0
    outer loop
      vertex 114.3 1181.1 88.9
      vertex 114.3 1638.3 0
      vertex 114.3 1638.3 88.9
    endloop
  endfacet
  facet normal 1 0 0
    outer loop
      vertex 114.3 1638.3 0
      vertex 114.3 1181.1 88.9
      vertex 114.3 1181.1 0
    endloop
  endfacet
  facet normal -1 0 0
    outer loop
      vertex 25.4 1181.1 0
      vertex 25.4 1638.3 88.9
      vertex 25.4 1638.3 0
    endloop
  endfacet
  facet normal -1 -0 0
    outer loop
      vertex 25.4 1638.3 88.9
      vertex 25.4 1181.1 0
      vertex 25.4 1181.1 88.9
    endloop
  endfacet
  facet normal 0 1 -0
    outer loop
      vertex 114.3 1638.3 0
      vertex 25.4 1638.3 88.9
      vertex 114.3 1638.3 88.9
    endloop
  endfacet
  facet normal 0 1 0
    outer loop
      vertex 25.4 1638.3 88.9
      vertex 114.3 1638.3 0
      vertex 25.4 1638.3 0
    endloop
  endfacet
  facet normal -1 0 0
    outer loop
      vertex 88.9 1333.5 0
      vertex 88.9 1473.2 88.9
      vertex 88.9 1473.2 0
    endloop
  endfacet
  facet normal -1 -0 0
    outer loop
      vertex 88.9 1473.2 88.9
      vertex 88.9 1333.5 0
      vertex 88.9 1333.5 88.9
    endloop
  endfacet
  facet normal 1 -0 0
    outer loop
      vertex 50.8 1333.5 88.9
      vertex 50.8 1473.2 0
      vertex 50.8 1473.2 88.9
    endloop
  endfacet
  facet normal 1 0 0
    outer loop
      vertex 50.8 1473.2 0
      vertex 50.8 1333.5 88.9
      vertex 50.8 1333.5 0
    endloop
  endfacet
  facet normal 0 -1 0
    outer loop
      vertex 50.8 1473.2 0
      vertex 88.9 1473.2 88.9
      vertex 50.8 1473.2 88.9
    endloop
  endfacet
  facet normal 0 -1 -0
    outer loop
      vertex 88.9 1473.2 88.9
      vertex 50.8 1473.2 0
      vertex 88.9 1473.2 0
    endloop
  endfacet
  facet normal 0 1 -0
    outer loop
      vertex 88.9 1333.5 0
      vertex 50.8 1333.5 88.9
      vertex 88.9 1333.5 88.9
    endloop
  endfacet
  facet normal 0 1 0
    outer loop
      vertex 50.8 1333.5 88.9
      vertex 88.9 1333.5 0
      vertex 50.8 1333.5 0
    endloop
  endfacet
  facet normal -1 0 0
    outer loop
      vertex 825.5 1384.3 317.5
      vertex 825.5 1422.4 698.5
      vertex 825.5 1422.4 317.5
    endloop
  endfacet
  facet normal -1 -0 0
    outer loop
      vertex 825.5 1422.4 698.5
      vertex 825.5 1384.3 317.5
      vertex 825.5 1384.3 698.5
    endloop
  endfacet
  facet normal -1 0 0
    outer loop
      vertex 825.5 1422.4 317.5
      vertex 825.5 1473.2 0
      vertex 825.5 1422.4 228.6
    endloop
  endfacet
  facet normal -1 0 0
    outer loop
      vertex 825.5 1473.2 0
      vertex 825.5 1384.3 228.6
      vertex 825.5 1422.4 228.6
    endloop
  endfacet
  facet normal -1 0 0
    outer loop
      vertex 825.5 1333.5 0
      vertex 825.5 1384.3 317.5
      vertex 825.5 1384.3 228.6
    endloop
  endfacet
  facet normal -1 0 0
    outer loop
      vertex 825.5 1384.3 317.5
      vertex 825.5 1333.5 787.4
      vertex 825.5 1384.3 698.5
    endloop
  endfacet
  facet normal -1 0 0
    outer loop
      vertex 825.5 1333.5 0
      vertex 825.5 1384.3 228.6
      vertex 825.5 1473.2 0
    endloop
  endfacet
  facet normal -1 -0 0
    outer loop
      vertex 825.5 1384.3 317.5
      vertex 825.5 1333.5 0
      vertex 825.5 1333.5 787.4
    endloop
  endfacet
  facet normal -1 0 0
    outer loop
      vertex 825.5 1384.3 698.5
      vertex 825.5 1333.5 787.4
      vertex 825.5 1384.3 787.4
    endloop
  endfacet
  facet normal -1 0 0
    outer loop
      vertex 825.5 1473.2 0
      vertex 825.5 1422.4 317.5
      vertex 825.5 1473.2 787.4
    endloop
  endfacet
  facet normal -1 0 0
    outer loop
      vertex 825.5 1422.4 698.5
      vertex 825.5 1473.2 787.4
      vertex 825.5 1422.4 317.5
    endloop
  endfacet
  facet normal -1 -0 0
    outer loop
      vertex 825.5 1473.2 787.4
      vertex 825.5 1422.4 698.5
      vertex 825.5 1422.4 787.4
    endloop
  endfacet
  facet normal 0 0 -1
    outer loop
      vertex 825.5 1333.5 0
      vertex 863.6 1473.2 0
      vertex 863.6 1333.5 0
    endloop
  endfacet
  facet normal -0 0 -1
    outer loop
      vertex 863.6 1473.2 0
      vertex 825.5 1333.5 0
      vertex 825.5 1473.2 0
    endloop
  endfacet
  facet normal 1 -0 0
    outer loop
      vertex 863.6 1333.5 787.4
      vertex 863.6 1384.3 698.5
      vertex 863.6 1384.3 787.4
    endloop
  endfacet
  facet normal 1 0 0
    outer loop
      vertex 863.6 1384.3 698.5
      vertex 863.6 1333.5 787.4
      vertex 863.6 1384.3 317.5
    endloop
  endfacet
  facet normal 1 0 0
    outer loop
      vertex 863.6 1333.5 0
      vertex 863.6 1384.3 317.5
      vertex 863.6 1333.5 787.4
    endloop
  endfacet
  facet normal 1 -0 0
    outer loop
      vertex 863.6 1384.3 698.5
      vertex 863.6 1422.4 317.5
      vertex 863.6 1422.4 698.5
    endloop
  endfacet
  facet normal 1 0 0
    outer loop
      vertex 863.6 1422.4 317.5
      vertex 863.6 1384.3 698.5
      vertex 863.6 1384.3 317.5
    endloop
  endfacet
  facet normal 1 0 0
    outer loop
      vertex 863.6 1422.4 698.5
      vertex 863.6 1473.2 787.4
      vertex 863.6 1422.4 787.4
    endloop
  endfacet
  facet normal 1 0 0
    outer loop
      vertex 863.6 1422.4 317.5
      vertex 863.6 1473.2 787.4
      vertex 863.6 1422.4 698.5
    endloop
  endfacet
  facet normal 1 0 0
    outer loop
      vertex 863.6 1473.2 787.4
      vertex 863.6 1422.4 317.5
      vertex 863.6 1473.2 0
    endloop
  endfacet
  facet normal 1 -0 0
    outer loop
      vertex 863.6 1422.4 228.6
      vertex 863.6 1473.2 0
      vertex 863.6 1422.4 317.5
    endloop
  endfacet
  facet normal 1 -0 0
    outer loop
      vertex 863.6 1384.3 228.6
      vertex 863.6 1473.2 0
      vertex 863.6 1422.4 228.6
    endloop
  endfacet
  facet normal 1 0 0
    outer loop
      vertex 863.6 1384.3 228.6
      vertex 863.6 1333.5 0
      vertex 863.6 1473.2 0
    endloop
  endfacet
  facet normal 1 0 0
    outer loop
      vertex 863.6 1384.3 317.5
      vertex 863.6 1333.5 0
      vertex 863.6 1384.3 228.6
    endloop
  endfacet
  facet normal 0 1 -0
    outer loop
      vertex 863.6 1473.2 0
      vertex 825.5 1473.2 787.4
      vertex 863.6 1473.2 787.4
    endloop
  endfacet
  facet normal 0 1 0
    outer loop
      vertex 825.5 1473.2 787.4
      vertex 863.6 1473.2 0
      vertex 825.5 1473.2 0
    endloop
  endfacet
  facet normal 0 -1 0
    outer loop
      vertex 825.5 1333.5 0
      vertex 863.6 1333.5 787.4
      vertex 825.5 1333.5 787.4
    endloop
  endfacet
  facet normal 0 -1 -0
    outer loop
      vertex 863.6 1333.5 787.4
      vertex 825.5 1333.5 0
      vertex 863.6 1333.5 0
    endloop
  endfacet
  facet normal 0 -1 0
    outer loop
      vertex 825.5 1422.4 228.6
      vertex 863.6 1422.4 317.5
      vertex 825.5 1422.4 317.5
    endloop
  endfacet
  facet normal 0 -1 -0
    outer loop
      vertex 863.6 1422.4 317.5
      vertex 825.5 1422.4 228.6
      vertex 863.6 1422.4 228.6
    endloop
  endfacet
  facet normal 0 1 -0
    outer loop
      vertex 863.6 1384.3 228.6
      vertex 825.5 1384.3 317.5
      vertex 863.6 1384.3 317.5
    endloop
  endfacet
  facet normal 0 1 0
    outer loop
      vertex 825.5 1384.3 317.5
      vertex 863.6 1384.3 228.6
      vertex 825.5 1384.3 228.6
    endloop
  endfacet
  facet normal -0 0 1
    outer loop
      vertex 825.5 1422.4 228.6
      vertex 863.6 1384.3 228.6
      vertex 863.6 1422.4 228.6
    endloop
  endfacet
  facet normal 0 0 1
    outer loop
      vertex 863.6 1384.3 228.6
      vertex 825.5 1422.4 228.6
      vertex 825.5 1384.3 228.6
    endloop
  endfacet
  facet normal 0 -1 0
    outer loop
      vertex 825.5 1422.4 698.5
      vertex 863.6 1422.4 787.4
      vertex 825.5 1422.4 787.4
    endloop
  endfacet
  facet normal 0 -1 -0
    outer loop
      vertex 863.6 1422.4 787.4
      vertex 825.5 1422.4 698.5
      vertex 863.6 1422.4 698.5
    endloop
  endfacet
  facet normal 0 1 -0
    outer loop
      vertex 863.6 1384.3 698.5
      vertex 825.5 1384.3 787.4
      vertex 863.6 1384.3 787.4
    endloop
  endfacet
  facet normal 0 1 0
    outer loop
      vertex 825.5 1384.3 787.4
      vertex 863.6 1384.3 698.5
      vertex 825.5 1384.3 698.5
    endloop
  endfacet
  facet normal -0 0 1
    outer loop
      vertex 825.5 1422.4 698.5
      vertex 863.6 1384.3 698.5
      vertex 863.6 1422.4 698.5
    endloop
  endfacet
  facet normal 0 0 1
    outer loop
      vertex 863.6 1384.3 698.5
      vertex 825.5 1422.4 698.5
      vertex 825.5 1384.3 698.5
    endloop
  endfacet
  facet normal 0 0 -1
    outer loop
      vertex 863.6 1473.2 0
      vertex 889 1181.1 0
      vertex 863.6 1333.5 0
    endloop
  endfacet
  facet normal 0 0 -1
    outer loop
      vertex 889 1181.1 0
      vertex 825.5 1333.5 0
      vertex 863.6 1333.5 0
    endloop
  endfacet
  facet normal -0 0 -1
    outer loop
      vertex 825.5 1333.5 0
      vertex 800.1 1181.1 0
      vertex 825.5 1473.2 0
    endloop
  endfacet
  facet normal 0 0 -1
    outer loop
      vertex 800.1 1181.1 0
      vertex 825.5 1333.5 0
      vertex 889 1181.1 0
    endloop
  endfacet
  facet normal 0 0 -1
    outer loop
      vertex 889 1181.1 0
      vertex 863.6 1473.2 0
      vertex 889 1638.3 0
    endloop
  endfacet
  facet normal 0 0 -1
    outer loop
      vertex 825.5 1473.2 0
      vertex 889 1638.3 0
      vertex 863.6 1473.2 0
    endloop
  endfacet
  facet normal 0 0 -1
    outer loop
      vertex 825.5 1473.2 0
      vertex 800.1 1638.3 0
      vertex 889 1638.3 0
    endloop
  endfacet
  facet normal 0 0 -1
    outer loop
      vertex 800.1 1638.3 0
      vertex 825.5 1473.2 0
      vertex 800.1 1181.1 0
    endloop
  endfacet
  facet normal 0 -1 0
    outer loop
      vertex 800.1 1181.1 0
      vertex 889 1181.1 88.9
      vertex 800.1 1181.1 88.9
    endloop
  endfacet
  facet normal 0 -1 -0
    outer loop
      vertex 889 1181.1 88.9
      vertex 800.1 1181.1 0
      vertex 889 1181.1 0
    endloop
  endfacet
  facet normal 0 0 1
    outer loop
      vertex 889 1638.3 88.9
      vertex 863.6 1473.2 88.9
      vertex 889 1181.1 88.9
    endloop
  endfacet
  facet normal 0 0 1
    outer loop
      vertex 889 1638.3 88.9
      vertex 825.5 1473.2 88.9
      vertex 863.6 1473.2 88.9
    endloop
  endfacet
  facet normal 0 0 1
    outer loop
      vertex 800.1 1181.1 88.9
      vertex 825.5 1473.2 88.9
      vertex 800.1 1638.3 88.9
    endloop
  endfacet
  facet normal -0 0 1
    outer loop
      vertex 800.1 1638.3 88.9
      vertex 825.5 1473.2 88.9
      vertex 889 1638.3 88.9
    endloop
  endfacet
  facet normal -0 0 1
    outer loop
      vertex 863.6 1333.5 88.9
      vertex 889 1181.1 88.9
      vertex 863.6 1473.2 88.9
    endloop
  endfacet
  facet normal -0 0 1
    outer loop
      vertex 825.5 1333.5 88.9
      vertex 889 1181.1 88.9
      vertex 863.6 1333.5 88.9
    endloop
  endfacet
  facet normal 0 0 1
    outer loop
      vertex 825.5 1333.5 88.9
      vertex 800.1 1181.1 88.9
      vertex 889 1181.1 88.9
    endloop
  endfacet
  facet normal 0 0 1
    outer loop
      vertex 825.5 1473.2 88.9
      vertex 800.1 1181.1 88.9
      vertex 825.5 1333.5 88.9
    endloop
  endfacet
  facet normal 1 -0 0
    outer loop
      vertex 889 1181.1 88.9
      vertex 889 1638.3 0
      vertex 889 1638.3 88.9
    endloop
  endfacet
  facet normal 1 0 0
    outer loop
      vertex 889 1638.3 0
      vertex 889 1181.1 88.9
      vertex 889 1181.1 0
    endloop
  endfacet
  facet normal -1 0 0
    outer loop
      vertex 800.1 1181.1 0
      vertex 800.1 1638.3 88.9
      vertex 800.1 1638.3 0
    endloop
  endfacet
  facet normal -1 -0 0
    outer loop
      vertex 800.1 1638.3 88.9
      vertex 800.1 1181.1 0
      vertex 800.1 1181.1 88.9
    endloop
  endfacet
  facet normal 0 1 -0
    outer loop
      vertex 889 1638.3 0
      vertex 800.1 1638.3 88.9
      vertex 889 1638.3 88.9
    endloop
  endfacet
  facet normal 0 1 0
    outer loop
      vertex 800.1 1638.3 88.9
      vertex 889 1638.3 0
      vertex 800.1 1638.3 0
    endloop
  endfacet
  facet normal -1 0 0
    outer loop
      vertex 863.6 1333.5 0
      vertex 863.6 1473.2 88.9
      vertex 863.6 1473.2 0
    endloop
  endfacet
  facet normal -1 -0 0
    outer loop
      vertex 863.6 1473.2 88.9
      vertex 863.6 1333.5 0
      vertex 863.6 1333.5 88.9
    endloop
  endfacet
  facet normal 1 -0 0
    outer loop
      vertex 825.5 1333.5 88.9
      vertex 825.5 1473.2 0
      vertex 825.5 1473.2 88.9
    endloop
  endfacet
  facet normal 1 0 0
    outer loop
      vertex 825.5 1473.2 0
      vertex 825.5 1333.5 88.9
      vertex 825.5 1333.5 0
    endloop
  endfacet
  facet normal 0 -1 0
    outer loop
      vertex 825.5 1473.2 0
      vertex 863.6 1473.2 88.9
      vertex 825.5 1473.2 88.9
    endloop
  endfacet
  facet normal 0 -1 -0
    outer loop
      vertex 863.6 1473.2 88.9
      vertex 825.5 1473.2 0
      vertex 863.6 1473.2 0
    endloop
  endfacet
  facet normal 0 1 -0
    outer loop
      vertex 863.6 1333.5 0
      vertex 825.5 1333.5 88.9
      vertex 863.6 1333.5 88.9
    endloop
  endfacet
  facet normal 0 1 0
    outer loop
      vertex 825.5 1333.5 88.9
      vertex 863.6 1333.5 0
      vertex 825.5 1333.5 0
    endloop
  endfacet
  facet normal 0 -1 0
    outer loop
      vertex 50.8 1384.3 228.6
      vertex 88.9 1384.3 317.5
      vertex 50.8 1384.3 317.5
    endloop
  endfacet
  facet normal 0 -1 -0
    outer loop
      vertex 88.9 1384.3 317.5
      vertex 50.8 1384.3 228.6
      vertex 825.5 1384.3 317.5
    endloop
  endfacet
  facet normal 0 -1 0
    outer loop
      vertex 863.6 1384.3 228.6
      vertex 825.5 1384.3 317.5
      vertex 50.8 1384.3 228.6
    endloop
  endfacet
  facet normal 0 -1 0
    outer loop
      vertex 825.5 1384.3 317.5
      vertex 863.6 1384.3 228.6
      vertex 863.6 1384.3 317.5
    endloop
  endfacet
  facet normal 0 1 -0
    outer loop
      vertex 863.6 1422.4 228.6
      vertex 825.5 1422.4 317.5
      vertex 863.6 1422.4 317.5
    endloop
  endfacet
  facet normal 0 1 0
    outer loop
      vertex 825.5 1422.4 317.5
      vertex 863.6 1422.4 228.6
      vertex 88.9 1422.4 317.5
    endloop
  endfacet
  facet normal 0 1 0
    outer loop
      vertex 50.8 1422.4 228.6
      vertex 88.9 1422.4 317.5
      vertex 863.6 1422.4 228.6
    endloop
  endfacet
  facet normal 0 1 0
    outer loop
      vertex 88.9 1422.4 317.5
      vertex 50.8 1422.4 228.6
      vertex 50.8 1422.4 317.5
    endloop
  endfacet
  facet normal -0 0 1
    outer loop
      vertex 88.9 1422.4 317.5
      vertex 825.5 1384.3 317.5
      vertex 825.5 1422.4 317.5
    endloop
  endfacet
  facet normal 0 0 1
    outer loop
      vertex 825.5 1384.3 317.5
      vertex 88.9 1422.4 317.5
      vertex 88.9 1384.3 317.5
    endloop
  endfacet
  facet normal 0 0 -1
    outer loop
      vertex 50.8 1384.3 228.6
      vertex 863.6 1422.4 228.6
      vertex 863.6 1384.3 228.6
    endloop
  endfacet
  facet normal -0 0 -1
    outer loop
      vertex 863.6 1422.4 228.6
      vertex 50.8 1384.3 228.6
      vertex 50.8 1422.4 228.6
    endloop
  endfacet
  facet normal 1 -0 0
    outer loop
      vertex 863.6 1384.3 317.5
      vertex 863.6 1422.4 228.6
      vertex 863.6 1422.4 317.5
    endloop
  endfacet
  facet normal 1 0 0
    outer loop
      vertex 863.6 1422.4 228.6
      vertex 863.6 1384.3 317.5
      vertex 863.6 1384.3 228.6
    endloop
  endfacet
  facet normal 0 -1 0
    outer loop
      vertex 50.8 1384.3 698.5
      vertex 863.6 1384.3 787.4
      vertex 50.8 1384.3 787.4
    endloop
  endfacet
  facet normal 0 -1 -0
    outer loop
      vertex 863.6 1384.3 787.4
      vertex 50.8 1384.3 698.5
      vertex 863.6 1384.3 698.5
    endloop
  endfacet
  facet normal -1 0 0
    outer loop
      vertex 50.8 1384.3 698.5
      vertex 50.8 1422.4 787.4
      vertex 50.8 1422.4 698.5
    endloop
  endfacet
  facet normal -1 -0 0
    outer loop
      vertex 50.8 1422.4 787.4
      vertex 50.8 1384.3 698.5
      vertex 50.8 1384.3 787.4
    endloop
  endfacet
  facet normal 0 1 -0
    outer loop
      vertex 863.6 1422.4 698.5
      vertex 50.8 1422.4 787.4
      vertex 863.6 1422.4 787.4
    endloop
  endfacet
  facet normal 0 1 0
    outer loop
      vertex 50.8 1422.4 787.4
      vertex 863.6 1422.4 698.5
      vertex 50.8 1422.4 698.5
    endloop
  endfacet
  facet normal 0 0 -1
    outer loop
      vertex 50.8 1384.3 698.5
      vertex 863.6 1422.4 698.5
      vertex 863.6 1384.3 698.5
    endloop
  endfacet
  facet normal -0 0 -1
    outer loop
      vertex 863.6 1422.4 698.5
      vertex 50.8 1384.3 698.5
      vertex 50.8 1422.4 698.5
    endloop
  endfacet
  facet normal 1 -0 0
    outer loop
      vertex 863.6 1384.3 787.4
      vertex 863.6 1422.4 698.5
      vertex 863.6 1422.4 787.4
    endloop
  endfacet
  facet normal 1 0 0
    outer loop
      vertex 863.6 1422.4 698.5
      vertex 863.6 1384.3 787.4
      vertex 863.6 1384.3 698.5
    endloop
  endfacet
  facet normal 1 -0 0
    outer loop
      vertex 914.4 0 838.2
      vertex 914.4 1524 787.4
      vertex 914.4 1524 838.2
    endloop
  endfacet
  facet normal 1 0 0
    outer loop
      vertex 914.4 1524 787.4
      vertex 914.4 0 838.2
      vertex 914.4 0 787.4
    endloop
  endfacet
  facet normal 0 0 -1
    outer loop
      vertex 50.8 190.5 787.4
      vertex 88.9 1333.5 787.4
      vertex 88.9 190.5 787.4
    endloop
  endfacet
  facet normal -0 0 -1
    outer loop
      vertex 88.9 1333.5 787.4
      vertex 50.8 190.5 787.4
      vertex 50.8 1333.5 787.4
    endloop
  endfacet
  facet normal -0 0 -1
    outer loop
      vertex 825.5 101.6 787.4
      vertex 88.9 50.8 787.4
      vertex 88.9 101.6 787.4
    endloop
  endfacet
  facet normal 0 0 -1
    outer loop
      vertex 825.5 1422.4 787.4
      vertex 88.9 1422.4 787.4
      vertex 825.5 1473.2 787.4
    endloop
  endfacet
  facet normal 0 0 -1
    outer loop
      vertex 88.9 190.5 787.4
      vertex 825.5 190.5 787.4
      vertex 825.5 139.7 787.4
    endloop
  endfacet
  facet normal 0 0 -1
    outer loop
      vertex 825.5 190.5 787.4
      vertex 88.9 190.5 787.4
      vertex 825.5 1333.5 787.4
    endloop
  endfacet
  facet normal 0 0 -1
    outer loop
      vertex 88.9 190.5 787.4
      vertex 825.5 139.7 787.4
      vertex 88.9 139.7 787.4
    endloop
  endfacet
  facet normal 0 0 -1
    outer loop
      vertex 88.9 1333.5 787.4
      vertex 825.5 1333.5 787.4
      vertex 88.9 190.5 787.4
    endloop
  endfacet
  facet normal 0 0 -1
    outer loop
      vertex 825.5 1333.5 787.4
      vertex 88.9 1333.5 787.4
      vertex 825.5 1384.3 787.4
    endloop
  endfacet
  facet normal -0 0 -1
    outer loop
      vertex 825.5 1384.3 787.4
      vertex 88.9 1333.5 787.4
      vertex 88.9 1384.3 787.4
    endloop
  endfacet
  facet normal 0 0 -1
    outer loop
      vertex 825.5 190.5 787.4
      vertex 863.6 1333.5 787.4
      vertex 863.6 190.5 787.4
    endloop
  endfacet
  facet normal -0 0 -1
    outer loop
      vertex 863.6 1333.5 787.4
      vertex 825.5 190.5 787.4
      vertex 825.5 1333.5 787.4
    endloop
  endfacet
  facet normal 0 0 -1
    outer loop
      vertex 863.6 101.6 787.4
      vertex 914.4 0 787.4
      vertex 863.6 50.8 787.4
    endloop
  endfacet
  facet normal 0 0 -1
    outer loop
      vertex 914.4 0 787.4
      vertex 825.5 50.8 787.4
      vertex 863.6 50.8 787.4
    endloop
  endfacet
  facet normal 0 0 -1
    outer loop
      vertex 825.5 50.8 787.4
      vertex 88.9 50.8 787.4
      vertex 825.5 101.6 787.4
    endloop
  endfacet
  facet normal 0 0 -1
    outer loop
      vertex 914.4 0 787.4
      vertex 88.9 50.8 787.4
      vertex 825.5 50.8 787.4
    endloop
  endfacet
  facet normal 0 0 -1
    outer loop
      vertex 0 0 787.4
      vertex 88.9 50.8 787.4
      vertex 914.4 0 787.4
    endloop
  endfacet
  facet normal 0 0 -1
    outer loop
      vertex 0 0 787.4
      vertex 50.8 101.6 787.4
      vertex 50.8 50.8 787.4
    endloop
  endfacet
  facet normal -0 0 -1
    outer loop
      vertex 50.8 101.6 787.4
      vertex 0 0 787.4
      vertex 50.8 139.7 787.4
    endloop
  endfacet
  facet normal -0 0 -1
    outer loop
      vertex 50.8 139.7 787.4
      vertex 0 0 787.4
      vertex 50.8 190.5 787.4
    endloop
  endfacet
  facet normal -0 0 -1
    outer loop
      vertex 50.8 190.5 787.4
      vertex 0 0 787.4
      vertex 50.8 1333.5 787.4
    endloop
  endfacet
  facet normal 0 0 -1
    outer loop
      vertex 0 1524 787.4
      vertex 50.8 1333.5 787.4
      vertex 0 0 787.4
    endloop
  endfacet
  facet normal 0 0 -1
    outer loop
      vertex 50.8 1333.5 787.4
      vertex 0 1524 787.4
      vertex 50.8 1384.3 787.4
    endloop
  endfacet
  facet normal 0 0 -1
    outer loop
      vertex 50.8 1384.3 787.4
      vertex 0 1524 787.4
      vertex 50.8 1422.4 787.4
    endloop
  endfacet
  facet normal -0 0 -1
    outer loop
      vertex 88.9 50.8 787.4
      vertex 0 0 787.4
      vertex 50.8 50.8 787.4
    endloop
  endfacet
  facet normal 0 0 -1
    outer loop
      vertex 863.6 139.7 787.4
      vertex 914.4 0 787.4
      vertex 863.6 101.6 787.4
    endloop
  endfacet
  facet normal 0 0 -1
    outer loop
      vertex 863.6 190.5 787.4
      vertex 914.4 0 787.4
      vertex 863.6 139.7 787.4
    endloop
  endfacet
  facet normal 0 0 -1
    outer loop
      vertex 914.4 0 787.4
      vertex 863.6 190.5 787.4
      vertex 914.4 1524 787.4
    endloop
  endfacet
  facet normal 0 0 -1
    outer loop
      vertex 863.6 1333.5 787.4
      vertex 914.4 1524 787.4
      vertex 863.6 190.5 787.4
    endloop
  endfacet
  facet normal 0 0 -1
    outer loop
      vertex 863.6 1384.3 787.4
      vertex 914.4 1524 787.4
      vertex 863.6 1333.5 787.4
    endloop
  endfacet
  facet normal 0 0 -1
    outer loop
      vertex 863.6 1422.4 787.4
      vertex 914.4 1524 787.4
      vertex 863.6 1384.3 787.4
    endloop
  endfacet
  facet normal 0 0 -1
    outer loop
      vertex 863.6 1473.2 787.4
      vertex 914.4 1524 787.4
      vertex 863.6 1422.4 787.4
    endloop
  endfacet
  facet normal 0 0 -1
    outer loop
      vertex 825.5 1473.2 787.4
      vertex 914.4 1524 787.4
      vertex 863.6 1473.2 787.4
    endloop
  endfacet
  facet normal 0 0 -1
    outer loop
      vertex 88.9 1473.2 787.4
      vertex 825.5 1473.2 787.4
      vertex 88.9 1422.4 787.4
    endloop
  endfacet
  facet normal 0 0 -1
    outer loop
      vertex 825.5 1473.2 787.4
      vertex 88.9 1473.2 787.4
      vertex 914.4 1524 787.4
    endloop
  endfacet
  facet normal 0 0 -1
    outer loop
      vertex 0 1524 787.4
      vertex 88.9 1473.2 787.4
      vertex 50.8 1473.2 787.4
    endloop
  endfacet
  facet normal 0 0 -1
    outer loop
      vertex 88.9 1473.2 787.4
      vertex 0 1524 787.4
      vertex 914.4 1524 787.4
    endloop
  endfacet
  facet normal 0 0 -1
    outer loop
      vertex 50.8 1422.4 787.4
      vertex 0 1524 787.4
      vertex 50.8 1473.2 787.4
    endloop
  endfacet
  facet normal 0 0 0
    outer loop
      vertex 863.6 139.7 787.4
      vertex 50.8 139.7 787.4
      vertex 88.9 139.7 787.4
    endloop
  endfacet
  facet normal 0 0 0
    outer loop
      vertex 825.5 101.6 787.4
      vertex 88.9 101.6 787.4
      vertex 50.8 101.6 787.4
    endloop
  endfacet
  facet normal 0 -0 0
    outer loop
      vertex 825.5 1422.4 787.4
      vertex 863.6 1422.4 787.4
      vertex 50.8 1422.4 787.4
    endloop
  endfacet
  facet normal 0 0 0
    outer loop
      vertex 825.5 1422.4 787.4
      vertex 50.8 1422.4 787.4
      vertex 88.9 1422.4 787.4
    endloop
  endfacet
  facet normal 0 0 0
    outer loop
      vertex 50.8 101.6 787.4
      vertex 863.6 101.6 787.4
      vertex 825.5 101.6 787.4
    endloop
  endfacet
  facet normal 0 0 0
    outer loop
      vertex 825.5 1384.3 787.4
      vertex 88.9 1384.3 787.4
      vertex 50.8 1384.3 787.4
    endloop
  endfacet
  facet normal 0 0 0
    outer loop
      vertex 863.6 139.7 787.4
      vertex 88.9 139.7 787.4
      vertex 825.5 139.7 787.4
    endloop
  endfacet
  facet normal 0 0 0
    outer loop
      vertex 50.8 1384.3 787.4
      vertex 863.6 1384.3 787.4
      vertex 825.5 1384.3 787.4
    endloop
  endfacet
  facet normal -1 0 0
    outer loop
      vertex 0 0 787.4
      vertex 0 1524 838.2
      vertex 0 1524 787.4
    endloop
  endfacet
  facet normal -1 -0 0
    outer loop
      vertex 0 1524 838.2
      vertex 0 0 787.4
      vertex 0 0 838.2
    endloop
  endfacet
  facet normal 0 1 -0
    outer loop
      vertex 914.4 1524 787.4
      vertex 0 1524 838.2
      vertex 914.4 1524 838.2
    endloop
  endfacet
  facet normal 0 1 0
    outer loop
      vertex 0 1524 838.2
      vertex 914.4 1524 787.4
      vertex 0 1524 787.4
    endloop
  endfacet
  facet normal 0 -1 0
    outer loop
      vertex 0 0 787.4
      vertex 914.4 0 838.2
      vertex 0 0 838.2
    endloop
  endfacet
  facet normal 0 -1 -0
    outer loop
      vertex 914.4 0 838.2
      vertex 0 0 787.4
      vertex 914.4 0 787.4
    endloop
  endfacet
endsolid OpenSCAD_Model
